<svg width="41" height="41" viewBox="0 0 41 41" fill="none" xmlns="http://www.w3.org/2000/svg">
<path d="M20.5 40.8907C21.0597 40.9132 21.6056 40.7134 22.0185 40.3347C22.4314 39.9561 22.6777 39.4295 22.7036 38.8699V2.13025C22.6563 1.57831 22.4036 1.06423 21.9955 0.689627C21.5874 0.315025 21.0536 0.107178 20.4996 0.107178C19.9457 0.107178 19.4119 0.315025 19.0038 0.689627C18.5957 1.06423 18.343 1.57831 18.2957 2.13025V38.8699C18.3216 39.4296 18.568 39.9564 18.981 40.335C19.3941 40.7136 19.9401 40.9134 20.5 40.8907V40.8907ZM19.7027 2.13025C19.749 1.95398 19.8524 1.79801 19.9967 1.68671C20.141 1.57542 20.3181 1.51505 20.5004 1.51505C20.6826 1.51505 20.8597 1.57542 21.004 1.68671C21.1483 1.79801 21.2517 1.95398 21.298 2.13025V38.8699C21.2517 39.0462 21.1483 39.2022 21.004 39.3135C20.8597 39.4248 20.6826 39.4851 20.5004 39.4851C20.3181 39.4851 20.141 39.4248 19.9967 39.3135C19.8524 39.2022 19.749 39.0462 19.7027 38.8699V2.13025ZM11.4065 36.461C11.9666 36.4833 12.5127 36.283 12.9255 35.9038C13.3383 35.5246 13.5842 34.9974 13.6094 34.4374V6.56274C13.5842 6.00278 13.3383 5.47558 12.9255 5.09638C12.5127 4.71718 11.9666 4.51684 11.4065 4.53915C10.8466 4.51664 10.3006 4.71661 9.88773 5.09537C9.47484 5.47414 9.22863 6.00092 9.20289 6.56064V34.4374C9.22809 34.9975 9.47407 35.5248 9.88702 35.9041C10.3 36.2833 10.8463 36.4835 11.4065 36.461V36.461ZM10.6091 6.56274C10.6385 6.37786 10.7375 6.21119 10.8857 6.09683C11.0339 5.98246 11.2202 5.92905 11.4065 5.94751C11.5928 5.92905 11.7791 5.98246 11.9273 6.09683C12.0755 6.21119 12.1744 6.37786 12.2038 6.56274V34.4374C12.1744 34.6223 12.0755 34.789 11.9273 34.9033C11.7791 35.0177 11.5928 35.0711 11.4065 35.0527C11.2202 35.0711 11.0339 35.0177 10.8857 34.9033C10.7375 34.789 10.6385 34.6223 10.6091 34.4374V6.56274ZM29.5935 33.0706C30.1537 33.0931 30.7 32.8928 31.113 32.5136C31.5259 32.1344 31.7719 31.607 31.7971 31.047V9.95321C31.7479 9.40284 31.4945 8.89082 31.0867 8.5179C30.679 8.14498 30.1464 7.93817 29.5939 7.93817C29.0413 7.93817 28.5087 8.14498 28.101 8.5179C27.6932 8.89082 27.4398 9.40284 27.3906 9.95321V31.047C27.4158 31.6069 27.6617 32.1341 28.0745 32.5133C28.4873 32.8925 29.0334 33.0929 29.5935 33.0706V33.0706ZM28.7969 9.95321C28.8434 9.77725 28.9469 9.62163 29.0911 9.5106C29.2353 9.39956 29.4122 9.33935 29.5942 9.33935C29.7762 9.33935 29.9531 9.39956 30.0974 9.5106C30.2416 9.62163 30.345 9.77725 30.3916 9.95321V31.047C30.345 31.2229 30.2416 31.3785 30.0974 31.4896C29.9531 31.6006 29.7762 31.6608 29.5942 31.6608C29.4122 31.6608 29.2353 31.6006 29.0911 31.4896C28.9469 31.3785 28.8434 31.2229 28.7969 31.047V9.95321ZM38.687 11.9177C38.1272 11.8952 37.5812 12.0952 37.1683 12.474C36.7554 12.8527 36.5092 13.3795 36.4834 13.9392V27.0174C36.5317 27.5685 36.7848 28.0815 37.1927 28.4553C37.6006 28.829 38.1338 29.0364 38.687 29.0364C39.2403 29.0364 39.7735 28.829 40.1814 28.4553C40.5893 28.0815 40.8423 27.5685 40.8906 27.0174V13.9392C40.8649 13.3795 40.6187 12.8527 40.2058 12.474C39.7929 12.0952 39.2469 11.8952 38.687 11.9177V11.9177ZM39.4844 27.0188C39.4378 27.1947 39.3344 27.3503 39.1902 27.4614C39.0459 27.5724 38.869 27.6326 38.687 27.6326C38.505 27.6326 38.3281 27.5724 38.1839 27.4614C38.0397 27.3503 37.9362 27.1947 37.8897 27.0188V13.9406C37.9362 13.7647 38.0397 13.6091 38.1839 13.498C38.3281 13.387 38.505 13.3268 38.687 13.3268C38.869 13.3268 39.0459 13.387 39.1902 13.498C39.3344 13.6091 39.4378 13.7647 39.4844 13.9406V27.0188ZM2.31297 27.2135C2.87271 27.236 3.41861 27.0362 3.83148 26.6575C4.24435 26.2789 4.49064 25.7523 4.51656 25.1927V15.3384C4.49064 14.7789 4.24435 14.2523 3.83148 13.8736C3.41861 13.495 2.87271 13.2951 2.31297 13.3177C1.75323 13.2951 1.20732 13.495 0.794454 13.8736C0.381584 14.2523 0.135297 14.7789 0.109375 15.3384V25.1927C0.135297 25.7523 0.381584 26.2789 0.794454 26.6575C1.20732 27.0362 1.75323 27.236 2.31297 27.2135V27.2135ZM1.51562 15.3384C1.54518 15.1537 1.64417 14.9872 1.79236 14.873C1.94056 14.7588 2.12678 14.7054 2.31297 14.7239C2.49916 14.7054 2.68538 14.7588 2.83358 14.873C2.98177 14.9872 3.08076 15.1537 3.11031 15.3384V25.1927C3.08076 25.3775 2.98177 25.544 2.83358 25.6582C2.68538 25.7724 2.49916 25.8258 2.31297 25.8073C2.12678 25.8258 1.94056 25.7724 1.79236 25.6582C1.64417 25.544 1.54518 25.3775 1.51562 25.1927V15.3384Z" fill="#FEC3A7"/>
</svg>
