<svg width="45" height="45" viewBox="0 0 45 45" fill="none" xmlns="http://www.w3.org/2000/svg">
<path d="M33.3872 19.5969C32.8069 19.5946 32.2397 19.7693 31.7613 20.0977C31.5645 19.5298 31.1963 19.037 30.7075 18.6873C30.2187 18.3376 29.6333 18.1482 29.0323 18.1453C28.4521 18.1429 27.8849 18.3176 27.4065 18.6461C27.2097 18.0782 26.8414 17.5854 26.3526 17.2357C25.8638 16.8859 25.2785 16.6966 24.6775 16.6936C24.1658 16.6958 23.6642 16.8362 23.2259 17.1001V10.1614C23.2262 9.73008 23.1304 9.30412 22.9454 8.91447C22.7605 8.52482 22.4911 8.18127 22.1567 7.90879C21.8224 7.63631 21.4315 7.44175 21.0126 7.33925C20.5936 7.23675 20.1571 7.22888 19.7347 7.31622C19.0676 7.46658 18.4728 7.84265 18.051 8.38089C17.6291 8.91913 17.406 9.58652 17.4194 10.2703V27.1017L15.4307 24.8299C14.8157 24.1321 13.9561 23.697 13.0296 23.6146C12.103 23.5323 11.1802 23.8088 10.4517 24.3872L9.94361 24.7936C9.52996 25.1137 9.24925 25.5753 9.15546 26.0898C9.06167 26.6043 9.16143 27.1353 9.43554 27.5807L14.6105 35.9275C15.6042 37.745 17.0562 39.2707 18.8223 40.353C20.5884 41.4354 22.607 42.0366 24.6775 42.0969C27.7574 42.0969 30.7112 40.8734 32.889 38.6955C35.0669 36.5177 36.2904 33.5639 36.2904 30.484V22.5001C36.2904 21.7301 35.9845 20.9917 35.44 20.4472C34.8956 19.9027 34.1571 19.5969 33.3872 19.5969ZM34.8388 30.484C34.8388 33.1789 33.7682 35.7635 31.8626 37.6691C29.957 39.5747 27.3724 40.6453 24.6775 40.6453C22.859 40.5844 21.0882 40.0485 19.5411 39.0909C17.994 38.1334 16.7246 36.7875 15.8589 35.1872L10.6984 26.7969C10.6148 26.6576 10.5842 26.4929 10.6122 26.333C10.6402 26.173 10.7249 26.0285 10.8509 25.9259L11.3589 25.5194C11.7961 25.1741 12.3491 25.0094 12.904 25.0594C13.4589 25.1093 13.9735 25.3701 14.342 25.788L17.6009 29.5114C17.6983 29.6219 17.8271 29.7001 17.9701 29.7357C18.1131 29.7712 18.2635 29.7624 18.4013 29.7104C18.5392 29.6584 18.658 29.5657 18.7419 29.4446C18.8258 29.3235 18.8708 29.1797 18.871 29.0324V10.2703C18.8545 9.91814 18.9594 9.57103 19.1681 9.28699C19.3769 9.00294 19.6768 8.79917 20.0178 8.70977C20.2549 8.6602 20.5007 8.67076 20.7327 8.74048C20.9647 8.81021 21.1755 8.93688 21.346 9.10897C21.4845 9.24658 21.5938 9.41071 21.6674 9.59154C21.741 9.77237 21.7773 9.96618 21.7743 10.1614V24.6775C21.7743 24.87 21.8507 25.0546 21.9868 25.1907C22.1229 25.3269 22.3076 25.4033 22.5001 25.4033C22.6926 25.4033 22.8772 25.3269 23.0133 25.1907C23.1494 25.0546 23.2259 24.87 23.2259 24.6775V19.5969C23.2259 19.2119 23.3788 18.8427 23.651 18.5704C23.9233 18.2982 24.2925 18.1453 24.6775 18.1453C25.0625 18.1453 25.4317 18.2982 25.7039 18.5704C25.9762 18.8427 26.1291 19.2119 26.1291 19.5969V24.6775C26.1291 24.87 26.2056 25.0546 26.3417 25.1907C26.4778 25.3269 26.6624 25.4033 26.8549 25.4033C27.0474 25.4033 27.232 25.3269 27.3681 25.1907C27.5042 25.0546 27.5807 24.87 27.5807 24.6775V21.0485C27.5807 20.6635 27.7336 20.2943 28.0059 20.022C28.2781 19.7498 28.6473 19.5969 29.0323 19.5969C29.4173 19.5969 29.7865 19.7498 30.0588 20.022C30.331 20.2943 30.4839 20.6635 30.4839 21.0485V24.6775C30.4839 24.87 30.5604 25.0546 30.6965 25.1907C30.8326 25.3269 31.0172 25.4033 31.2097 25.4033C31.4022 25.4033 31.5868 25.3269 31.723 25.1907C31.8591 25.0546 31.9355 24.87 31.9355 24.6775V22.5001C31.9355 22.1151 32.0885 21.7459 32.3607 21.4737C32.6329 21.2014 33.0022 21.0485 33.3872 21.0485C33.7721 21.0485 34.1414 21.2014 34.4136 21.4737C34.6858 21.7459 34.8388 22.1151 34.8388 22.5001V30.484ZM20.3226 6.53235C20.5151 6.53235 20.6997 6.45588 20.8359 6.31977C20.972 6.18365 21.0484 5.99904 21.0484 5.80655V3.62913C21.0484 3.43663 20.972 3.25202 20.8359 3.1159C20.6997 2.97979 20.5151 2.90332 20.3226 2.90332C20.1301 2.90332 19.9455 2.97979 19.8094 3.1159C19.6733 3.25202 19.5968 3.43663 19.5968 3.62913V5.80655C19.5968 5.99904 19.6733 6.18365 19.8094 6.31977C19.9455 6.45588 20.1301 6.53235 20.3226 6.53235Z" fill="#FEC3A7"/>
<path d="M24.6776 9.43542C24.6776 9.62792 24.754 9.81253 24.8902 9.94864C25.0263 10.0848 25.2109 10.1612 25.4034 10.1612H27.5808C27.7733 10.1612 27.9579 10.0848 28.094 9.94864C28.2301 9.81253 28.3066 9.62792 28.3066 9.43542C28.3066 9.24293 28.2301 9.05831 28.094 8.9222C27.9579 8.78608 27.7733 8.70962 27.5808 8.70962H25.4034C25.2109 8.70962 25.0263 8.78608 24.8902 8.9222C24.754 9.05831 24.6776 9.24293 24.6776 9.43542ZM13.0647 10.1612H15.2421C15.4346 10.1612 15.6192 10.0848 15.7553 9.94864C15.8914 9.81253 15.9679 9.62792 15.9679 9.43542C15.9679 9.24293 15.8914 9.05831 15.7553 8.9222C15.6192 8.78608 15.4346 8.70962 15.2421 8.70962H13.0647C12.8722 8.70962 12.6876 8.78608 12.5515 8.9222C12.4153 9.05831 12.3389 9.24293 12.3389 9.43542C12.3389 9.62792 12.4153 9.81253 12.5515 9.94864C12.6876 10.0848 12.8722 10.1612 13.0647 10.1612ZM16.1784 7.04752C16.2459 7.11555 16.3261 7.16954 16.4146 7.20639C16.503 7.24324 16.5979 7.26221 16.6937 7.26221C16.7895 7.26221 16.8844 7.24324 16.9728 7.20639C17.0613 7.16954 17.1416 7.11555 17.209 7.04752C17.2771 6.98005 17.3311 6.89977 17.3679 6.81132C17.4048 6.72288 17.4237 6.62801 17.4237 6.5322C17.4237 6.43638 17.4048 6.34151 17.3679 6.25307C17.3311 6.16462 17.2771 6.08435 17.209 6.01687L15.7574 4.56526C15.6897 4.49759 15.6094 4.44391 15.521 4.40728C15.4326 4.37066 15.3378 4.35181 15.2421 4.35181C15.0488 4.35181 14.8634 4.42859 14.7268 4.56526C14.5901 4.70193 14.5133 4.8873 14.5133 5.08058C14.5133 5.27387 14.5901 5.45923 14.7268 5.59591L16.1784 7.04752ZM23.9518 7.258C24.0473 7.25855 24.142 7.24025 24.2304 7.20413C24.3188 7.16801 24.3993 7.11479 24.4671 7.04752L25.9187 5.59591C25.9864 5.52823 26.0401 5.44789 26.0767 5.35947C26.1133 5.27105 26.1322 5.17629 26.1322 5.08058C26.1322 4.98488 26.1133 4.89011 26.0767 4.80169C26.0401 4.71327 25.9864 4.63293 25.9187 4.56526C25.851 4.49759 25.7707 4.44391 25.6823 4.40728C25.5939 4.37066 25.4991 4.35181 25.4034 4.35181C25.3077 4.35181 25.2129 4.37066 25.1245 4.40728C25.0361 4.44391 24.9557 4.49759 24.8881 4.56526L23.4364 6.01687C23.3684 6.08435 23.3144 6.16462 23.2776 6.25307C23.2407 6.34151 23.2218 6.43638 23.2218 6.5322C23.2218 6.62801 23.2407 6.72288 23.2776 6.81132C23.3144 6.89977 23.3684 6.98005 23.4364 7.04752C23.5043 7.11479 23.5847 7.16801 23.6731 7.20413C23.7616 7.24025 23.8562 7.25855 23.9518 7.258Z" fill="#FEC3A7"/>
</svg>
