<svg width="36" height="36" viewBox="0 0 36 36" fill="none" xmlns="http://www.w3.org/2000/svg">
<circle cx="18" cy="18" r="17.5" stroke="#FEC3A7"/>
<path d="M19.4099 17.9999L23.7099 13.7099C23.8982 13.5216 24.004 13.2662 24.004 12.9999C24.004 12.7336 23.8982 12.4782 23.7099 12.2899C23.5216 12.1016 23.2662 11.9958 22.9999 11.9958C22.7336 11.9958 22.4782 12.1016 22.2899 12.2899L17.9999 16.5899L13.7099 12.2899C13.5216 12.1016 13.2662 11.9958 12.9999 11.9958C12.7336 11.9958 12.4782 12.1016 12.2899 12.2899C12.1016 12.4782 11.9958 12.7336 11.9958 12.9999C11.9958 13.2662 12.1016 13.5216 12.2899 13.7099L16.5899 17.9999L12.2899 22.2899C12.1962 22.3829 12.1218 22.4935 12.071 22.6154C12.0203 22.7372 11.9941 22.8679 11.9941 22.9999C11.9941 23.132 12.0203 23.2627 12.071 23.3845C12.1218 23.5064 12.1962 23.617 12.2899 23.7099C12.3829 23.8037 12.4935 23.8781 12.6154 23.9288C12.7372 23.9796 12.8679 24.0057 12.9999 24.0057C13.132 24.0057 13.2627 23.9796 13.3845 23.9288C13.5064 23.8781 13.617 23.8037 13.7099 23.7099L17.9999 19.4099L22.2899 23.7099C22.3829 23.8037 22.4935 23.8781 22.6154 23.9288C22.7372 23.9796 22.8679 24.0057 22.9999 24.0057C23.132 24.0057 23.2627 23.9796 23.3845 23.9288C23.5064 23.8781 23.617 23.8037 23.7099 23.7099C23.8037 23.617 23.8781 23.5064 23.9288 23.3845C23.9796 23.2627 24.0057 23.132 24.0057 22.9999C24.0057 22.8679 23.9796 22.7372 23.9288 22.6154C23.8781 22.4935 23.8037 22.3829 23.7099 22.2899L19.4099 17.9999Z" fill="#FEC3A7"/>
</svg>
