<svg width="28" height="28" viewBox="0 0 28 28" fill="none" xmlns="http://www.w3.org/2000/svg">
<path d="M22.1667 4.6665H5.83337C4.90512 4.6665 4.01488 5.03525 3.3585 5.69163C2.70212 6.34801 2.33337 7.23825 2.33337 8.1665V19.8332C2.33337 20.7614 2.70212 21.6517 3.3585 22.308C4.01488 22.9644 4.90512 23.3332 5.83337 23.3332H22.1667C23.095 23.3332 23.9852 22.9644 24.6416 22.308C25.298 21.6517 25.6667 20.7614 25.6667 19.8332V8.1665C25.6667 7.23825 25.298 6.34801 24.6416 5.69163C23.9852 5.03525 23.095 4.6665 22.1667 4.6665ZM21.385 6.99984L14 12.5415L6.61504 6.99984H21.385ZM22.1667 20.9998H5.83337C5.52395 20.9998 5.22721 20.8769 5.00842 20.6581C4.78962 20.4393 4.66671 20.1426 4.66671 19.8332V8.45817L13.3 14.9332C13.502 15.0846 13.7476 15.1665 14 15.1665C14.2525 15.1665 14.4981 15.0846 14.7 14.9332L23.3334 8.45817V19.8332C23.3334 20.1426 23.2105 20.4393 22.9917 20.6581C22.7729 20.8769 22.4761 20.9998 22.1667 20.9998Z" fill="#FEC3A7"/>
</svg>
