<svg width="28" height="28" viewBox="0 0 28 28" fill="none" xmlns="http://www.w3.org/2000/svg">
<path d="M14 0C11.2311 0 8.52431 0.821085 6.22202 2.35942C3.91973 3.89776 2.12532 6.08427 1.06569 8.64243C0.00606603 11.2006 -0.271181 14.0155 0.269012 16.7313C0.809205 19.447 2.14258 21.9416 4.10051 23.8995C6.05845 25.8574 8.55301 27.1908 11.2687 27.731C13.9845 28.2712 16.7994 27.9939 19.3576 26.9343C21.9157 25.8747 24.1022 24.0803 25.6406 21.778C27.1789 19.4757 28 16.7689 28 14C28 10.287 26.525 6.72601 23.8995 4.1005C21.274 1.475 17.713 0 14 0V0ZM14 25.4545C11.7345 25.4545 9.51989 24.7827 7.6362 23.5241C5.75251 22.2655 4.28435 20.4765 3.41739 18.3835C2.55042 16.2904 2.32358 13.9873 2.76556 11.7653C3.20753 9.54336 4.29847 7.50236 5.90042 5.90041C7.50236 4.29847 9.54337 3.20753 11.7653 2.76555C13.9873 2.32357 16.2904 2.55041 18.3835 3.41738C20.4765 4.28435 22.2655 5.7525 23.5241 7.63619C24.7827 9.51988 25.4545 11.7345 25.4545 14C25.4545 17.0379 24.2477 19.9514 22.0996 22.0996C19.9514 24.2477 17.0379 25.4545 14 25.4545V25.4545ZM14.7509 8.48909C15.4043 8.50577 16.0451 8.67291 16.6235 8.97753C17.2018 9.28215 17.7021 9.71603 18.0855 10.2455C18.2899 10.5135 18.5923 10.6895 18.9264 10.7349C19.2604 10.7802 19.5988 10.6912 19.8673 10.4873C20.0009 10.385 20.1129 10.2573 20.1968 10.1115C20.2807 9.96567 20.3349 9.80467 20.3562 9.63779C20.3775 9.47091 20.3655 9.30146 20.3209 9.13924C20.2763 8.97703 20.2 8.82526 20.0964 8.69273C19.4772 7.85386 18.6726 7.16933 17.7454 6.69249C16.8182 6.21564 15.7934 5.95936 14.7509 5.94364C13.2934 5.98605 11.8845 6.47686 10.7161 7.34917C9.54769 8.22147 8.6767 9.43285 8.22182 10.8182H6.36364C6.02609 10.8182 5.70237 10.9523 5.46369 11.191C5.225 11.4296 5.09091 11.7534 5.09091 12.0909C5.09091 12.4285 5.225 12.7522 5.46369 12.9909C5.70237 13.2295 6.02609 13.3636 6.36364 13.3636H7.63637C7.63637 13.58 7.63637 13.7836 7.63637 14C7.63637 14.2164 7.63637 14.42 7.63637 14.6364H6.36364C6.02609 14.6364 5.70237 14.7705 5.46369 15.0091C5.225 15.2478 5.09091 15.5715 5.09091 15.9091C5.09091 16.2466 5.225 16.5704 5.46369 16.809C5.70237 17.0477 6.02609 17.1818 6.36364 17.1818H8.22182C8.6767 18.5671 9.54769 19.7785 10.7161 20.6508C11.8845 21.5231 13.2934 22.0139 14.7509 22.0564C15.7934 22.0406 16.8182 21.7844 17.7454 21.3075C18.6726 20.8307 19.4772 20.1461 20.0964 19.3073C20.2333 19.18 20.3405 19.0242 20.4104 18.8508C20.4802 18.6774 20.5111 18.4908 20.5007 18.3041C20.4902 18.1175 20.4388 17.9355 20.3501 17.7709C20.2614 17.6064 20.1375 17.4634 19.9873 17.3522C19.8371 17.241 19.6642 17.1642 19.481 17.1273C19.2977 17.0904 19.1086 17.0944 18.927 17.1389C18.7455 17.1833 18.5759 17.2673 18.4305 17.3847C18.285 17.5021 18.1672 17.6501 18.0855 17.8182C17.7021 18.3476 17.2018 18.7815 16.6235 19.0861C16.0451 19.3907 15.4043 19.5579 14.7509 19.5745C13.9742 19.5439 13.22 19.3058 12.5664 18.885C11.9129 18.4642 11.3839 17.8761 11.0345 17.1818H14C14.3376 17.1818 14.6613 17.0477 14.9 16.809C15.1386 16.5704 15.2727 16.2466 15.2727 15.9091C15.2727 15.5715 15.1386 15.2478 14.9 15.0091C14.6613 14.7705 14.3376 14.6364 14 14.6364H10.2455C10.2117 14.4257 10.1904 14.2132 10.1818 14C10.1904 13.7868 10.2117 13.5743 10.2455 13.3636H14C14.3376 13.3636 14.6613 13.2295 14.9 12.9909C15.1386 12.7522 15.2727 12.4285 15.2727 12.0909C15.2727 11.7534 15.1386 11.4296 14.9 11.191C14.6613 10.9523 14.3376 10.8182 14 10.8182H11.0345C11.3924 10.1357 11.925 9.56055 12.5779 9.15135C13.2309 8.74215 13.9807 8.51361 14.7509 8.48909V8.48909Z" fill="#FEC3A7"/>
</svg>
