<svg width="69" height="69" viewBox="0 0 69 69" fill="none" xmlns="http://www.w3.org/2000/svg">
<path d="M67.22 33.811C66.622 33.193 52.389 18.665 34.5 18.665C16.611 18.665 2.378 33.193 1.78 33.811C1.5999 33.9976 1.49933 34.2469 1.49951 34.5062C1.4997 34.7656 1.60063 35.0147 1.781 35.201C2.378 35.819 16.611 50.335 34.5 50.335C34.513 50.335 34.523 50.328 34.536 50.328C43.252 50.313 50.338 43.219 50.338 34.5C50.338 30.924 49.174 27.55 46.973 24.741C46.8094 24.5323 46.5695 24.3971 46.3062 24.3653C46.0429 24.3334 45.7777 24.4074 45.569 24.571C45.3603 24.7347 45.2251 24.9745 45.1932 25.2378C45.1613 25.5011 45.2354 25.7663 45.399 25.975C47.3133 28.4033 48.3492 31.408 48.338 34.5C48.338 42.125 42.134 48.329 34.509 48.329C26.874 48.329 20.662 42.125 20.662 34.5C20.662 26.875 26.874 20.67 34.509 20.67C37.048 20.67 39.53 21.364 41.689 22.677C41.8011 22.7454 41.9256 22.7911 42.0554 22.8113C42.1852 22.8315 42.3176 22.826 42.4453 22.7949C42.5729 22.7639 42.6931 22.708 42.7991 22.6305C42.9051 22.553 42.9948 22.4553 43.063 22.343C43.1475 22.196 43.1923 22.0296 43.193 21.86C54.076 24.776 62.608 32.197 65.065 34.505C62.826 36.612 55.54 42.979 46.058 46.274C45.8074 46.361 45.6016 46.544 45.4859 46.7828C45.3701 47.0215 45.354 47.2964 45.441 47.547C45.528 47.7977 45.711 48.0035 45.9497 48.1192C46.1885 48.2349 46.4634 48.251 46.714 48.164C58.59 44.037 66.872 35.56 67.219 35.201C67.3994 35.0147 67.5003 34.7656 67.5005 34.5062C67.5007 34.2469 67.4001 33.9976 67.22 33.811ZM18.662 34.5C18.662 39.446 20.947 43.865 24.515 46.77C14.253 43.642 6.294 36.72 3.935 34.504C6.292 32.286 14.246 25.355 24.517 22.227C20.948 25.133 18.662 29.553 18.662 34.5Z" fill="#FEC3A7"/>
<path d="M34.5001 40.0651C33.4307 40.0635 32.3842 39.7551 31.485 39.1763C30.5857 38.5975 29.8715 37.7728 29.4271 36.8001C29.3136 36.5647 29.1124 36.3831 28.8667 36.2942C28.621 36.2053 28.3502 36.2161 28.1123 36.3243C27.8745 36.4325 27.6884 36.6295 27.594 36.8732C27.4996 37.1169 27.5043 37.3878 27.6071 37.6281C28.2111 38.9499 29.1817 40.0706 30.4037 40.8571C31.6258 41.6437 33.0479 42.0629 34.5011 42.0651C38.6751 42.0651 42.0711 38.6691 42.0711 34.4951C42.0711 30.8141 39.3361 27.6111 35.7251 27.0421L35.6901 27.0361C35.2974 26.9685 34.8996 26.9347 34.5011 26.9351C32.6296 26.9314 30.8232 27.622 29.4315 28.8733C28.0398 30.1246 27.1617 31.8477 26.9671 33.7091C26.9447 33.9176 26.9886 34.128 27.0926 34.3102C27.1965 34.4924 27.3552 34.6372 27.5461 34.7241C28.3751 35.1021 29.2691 35.2941 30.2011 35.2941C31.8212 35.2936 33.3812 34.6809 34.5686 33.5788C35.756 32.4767 36.4831 30.9666 36.6041 29.3511C38.6461 30.1861 40.0711 32.2161 40.0711 34.4941C40.0693 35.971 39.4817 37.387 38.4374 38.4313C37.393 39.4757 35.9771 40.0632 34.5001 40.0651ZM30.2001 33.2951C29.8181 33.2951 29.4461 33.2491 29.0891 33.1571C29.3967 31.9311 30.1114 30.8458 31.1162 30.079C32.121 29.3121 33.3564 28.9092 34.6201 28.9361C34.6041 30.0977 34.1314 31.2064 33.3042 32.0221C32.477 32.8379 31.3619 33.2952 30.2001 33.2951Z" fill="#FEC3A7"/>
<path d="M34.5 13.9911C34.7652 13.9911 35.0196 13.8858 35.2071 13.6982C35.3946 13.5107 35.5 13.2563 35.5 12.9911V8.46411C35.5 8.19889 35.3946 7.94454 35.2071 7.757C35.0196 7.56947 34.7652 7.46411 34.5 7.46411C34.2348 7.46411 33.9804 7.56947 33.7929 7.757C33.6054 7.94454 33.5 8.19889 33.5 8.46411V12.9911C33.5 13.2563 33.6054 13.5107 33.7929 13.6982C33.9804 13.8858 34.2348 13.9911 34.5 13.9911Z" fill="#FEC3A7"/>
<path d="M22.8788 16.373C22.944 16.4877 23.0312 16.5883 23.1355 16.6691C23.2397 16.7499 23.3589 16.8093 23.4861 16.8438C23.6134 16.8784 23.7463 16.8874 23.877 16.8704C24.0078 16.8534 24.1339 16.8107 24.2482 16.7448C24.3624 16.6788 24.4624 16.591 24.5425 16.4862C24.6226 16.3814 24.6812 16.2619 24.7149 16.1344C24.7486 16.0069 24.7568 15.8739 24.7389 15.7433C24.7211 15.6126 24.6775 15.4868 24.6108 15.373L22.3478 11.453C22.2826 11.3384 22.1954 11.2377 22.0912 11.1569C21.987 11.0761 21.8678 11.0168 21.7405 10.9822C21.6133 10.9476 21.4804 10.9386 21.3496 10.9556C21.2188 10.9726 21.0927 11.0153 20.9785 11.0812C20.8643 11.1472 20.7643 11.2351 20.6841 11.3398C20.604 11.4446 20.5454 11.5642 20.5117 11.6917C20.478 11.8192 20.4699 11.9521 20.4877 12.0827C20.5056 12.2134 20.5491 12.3392 20.6158 12.453L22.8788 16.373Z" fill="#FEC3A7"/>
<path d="M24.245 52.261C24.1313 52.1953 24.0058 52.1525 23.8756 52.1353C23.7454 52.1181 23.613 52.1268 23.4861 52.1607C23.3593 52.1947 23.2403 52.2534 23.1361 52.3334C23.032 52.4135 22.9446 52.5132 22.879 52.627L20.616 56.547C20.4855 56.7766 20.4511 57.0485 20.5203 57.3033C20.5895 57.5582 20.7567 57.7753 20.9853 57.9073C21.214 58.0394 21.4857 58.0756 21.741 58.0081C21.9963 57.9406 22.2145 57.7749 22.348 57.547L24.611 53.627C24.6768 53.5134 24.7196 53.3878 24.7368 53.2576C24.754 53.1274 24.7453 52.995 24.7113 52.8681C24.6773 52.7413 24.6187 52.6223 24.5386 52.5182C24.4586 52.414 24.3589 52.3266 24.245 52.261Z" fill="#FEC3A7"/>
<path d="M34.5 55.009C34.2348 55.009 33.9804 55.1144 33.7929 55.3019C33.6054 55.4895 33.5 55.7438 33.5 56.009V60.536C33.5 60.8012 33.6054 61.0556 33.7929 61.2431C33.9804 61.4307 34.2348 61.536 34.5 61.536C34.7652 61.536 35.0196 61.4307 35.2071 61.2431C35.3946 61.0556 35.5 60.8012 35.5 60.536V56.009C35.5 55.7438 35.3946 55.4895 35.2071 55.3019C35.0196 55.1144 34.7652 55.009 34.5 55.009Z" fill="#FEC3A7"/>
<path d="M46.1208 52.6271C46.0556 52.5124 45.9684 52.4118 45.8642 52.331C45.7599 52.2502 45.6407 52.1908 45.5135 52.1563C45.3862 52.1217 45.2533 52.1127 45.1226 52.1297C44.9918 52.1467 44.8657 52.1894 44.7515 52.2553C44.6372 52.3213 44.5372 52.4091 44.4571 52.5139C44.377 52.6187 44.3184 52.7382 44.2847 52.8657C44.251 52.9932 44.2428 53.1261 44.2607 53.2568C44.2785 53.3875 44.3221 53.5133 44.3888 53.6271L46.6518 57.5471C46.717 57.6617 46.8042 57.7623 46.9084 57.8432C47.0126 57.924 47.1318 57.9833 47.2591 58.0179C47.3864 58.0524 47.5192 58.0615 47.65 58.0445C47.7808 58.0275 47.9069 57.9848 48.0211 57.9188C48.1353 57.8529 48.2354 57.765 48.3155 57.6603C48.3956 57.5555 48.4542 57.4359 48.4879 57.3084C48.5216 57.1809 48.5297 57.048 48.5119 56.9174C48.494 56.7867 48.4505 56.6609 48.3838 56.5471L46.1208 52.6271Z" fill="#FEC3A7"/>
<path d="M44.7552 16.739C44.8689 16.8049 44.9944 16.8478 45.1247 16.865C45.2549 16.8823 45.3873 16.8737 45.5142 16.8397C45.6412 16.8057 45.7601 16.747 45.8643 16.6669C45.9684 16.5868 46.0557 16.4869 46.1212 16.373L48.3842 12.453C48.5147 12.2234 48.5492 11.9516 48.48 11.6967C48.4108 11.4419 48.2436 11.2248 48.0149 11.0927C47.7862 10.9607 47.5146 10.9245 47.2593 10.992C47.004 11.0595 46.7858 11.2252 46.6522 11.453L44.3892 15.373C44.3234 15.4867 44.2807 15.6122 44.2635 15.7425C44.2463 15.8727 44.2549 16.005 44.2889 16.1319C44.3229 16.2588 44.3816 16.3777 44.4616 16.4819C44.5416 16.5861 44.6414 16.6734 44.7552 16.739Z" fill="#FEC3A7"/>
</svg>
