<svg width="73" height="65" viewBox="0 0 73 65" fill="none" xmlns="http://www.w3.org/2000/svg">
<path d="M37.6684 5.87772L36.5347 6.99156L35.4009 5.87456C31.4849 2.08658 26.2092 -0.0246273 20.7213 0.00021681C15.2335 0.025061 9.97767 2.18395 6.09716 6.00722C2.21664 9.8305 0.0254361 15.0088 0.000220055 20.4157C-0.024996 25.8226 2.11782 31.0205 5.96251 34.8788L7.09623 35.9958L36.5347 65L65.9731 35.9958L67.1068 34.8788C70.921 31.0145 73.0378 25.8262 72.9995 20.4362C72.9612 15.0461 70.7708 9.88758 66.902 6.07634C63.0333 2.26511 57.7973 0.107568 52.3266 0.0703974C46.8558 0.0332264 41.5901 2.11941 37.6684 5.87772V5.87772Z" fill="#FEC3A7"/>
</svg>
