<svg width="23" height="20" viewBox="0 0 23 20" fill="none" xmlns="http://www.w3.org/2000/svg">
<path d="M11.8681 1.80853L11.5109 2.15125L11.1537 1.80756C9.91991 0.642025 8.25768 -0.00757764 6.52864 6.67106e-05C4.7996 0.00771106 3.14365 0.671985 1.92102 1.84838C0.698395 3.02477 0.00801413 4.6181 6.93325e-05 6.28176C-0.00787546 7.94541 0.667259 9.54478 1.8786 10.7319L2.2358 11.0756L11.5109 20L20.786 11.0756L21.1432 10.7319C22.345 9.54293 23.0119 7.94654 22.9998 6.28806C22.9878 4.62958 22.2976 3.04233 21.0787 1.86964C19.8598 0.696957 18.2101 0.033098 16.4865 0.0216607C14.7628 0.0102235 13.1037 0.652127 11.8681 1.80853V1.80853Z" fill="#FEC3A7"/>
</svg>
