<svg width="36" height="40" viewBox="0 0 36 40" fill="none" xmlns="http://www.w3.org/2000/svg">
<circle cx="18" cy="22" r="17.5" stroke="#FEC3A7"/>
<path d="M14.4834 27.4V15.92C14.4834 15.6133 14.3167 15.4533 13.9834 15.44L13.2834 15.4V13.74H16.8034V18.48C17.4034 17.92 18.21 17.64 19.2234 17.64C20.4767 17.64 21.47 18.0667 22.2034 18.92C22.9367 19.76 23.3034 20.9467 23.3034 22.48C23.3034 26.3333 21.69 28.26 18.4634 28.26C17.77 28.26 17.0367 28.1733 16.2634 28C15.5034 27.84 14.91 27.64 14.4834 27.4ZM16.8034 20.92V26.1C17.31 26.3667 17.8967 26.5 18.5634 26.5C20.0834 26.5 20.8434 25.2667 20.8434 22.8C20.8434 20.5467 20.0967 19.42 18.6034 19.42C18.1234 19.42 17.7034 19.56 17.3434 19.84C16.9834 20.12 16.8034 20.48 16.8034 20.92Z" fill="#FEC3A7"/>
</svg>
