<svg width="36" height="41" viewBox="0 0 36 41" fill="none" xmlns="http://www.w3.org/2000/svg">
<circle cx="18" cy="23" r="17.5" stroke="#FEC3A7"/>
<path d="M15.873 22.86C15.873 23.9933 16.0863 24.8733 16.513 25.5C16.9396 26.1267 17.553 26.44 18.353 26.44C19.1663 26.44 19.9663 26.1533 20.753 25.58L21.613 27.12C20.6663 27.8933 19.4796 28.28 18.053 28.28C16.6263 28.28 15.4996 27.8333 14.673 26.94C13.8596 26.0333 13.453 24.7 13.453 22.94C13.453 21.18 13.9196 19.86 14.853 18.98C15.7996 18.0867 16.8596 17.64 18.033 17.64C19.2196 17.64 20.3196 17.9133 21.333 18.46V21.06L19.493 21.2V20.24C19.493 19.88 19.3596 19.66 19.093 19.58C18.8396 19.4867 18.573 19.44 18.293 19.44C16.6796 19.44 15.873 20.58 15.873 22.86Z" fill="#FEC3A7"/>
</svg>
