<svg width="36" height="40" viewBox="0 0 36 40" fill="none" xmlns="http://www.w3.org/2000/svg">
<circle cx="18" cy="22" r="17.5" stroke="#FEC3A7"/>
<path d="M21.4662 18.34V25.78C21.4662 25.9933 21.4995 26.14 21.5662 26.22C21.6462 26.3 21.7795 26.3467 21.9662 26.36L22.6062 26.4V28H19.4262V26.84L19.3662 26.82C18.6995 27.78 17.7862 28.26 16.6262 28.26C15.2662 28.26 14.2595 27.8267 13.6062 26.96C12.9528 26.0933 12.6262 24.9067 12.6262 23.4C12.6262 21.5867 13.0662 20.1733 13.9462 19.16C14.8262 18.1467 16.1462 17.64 17.9062 17.64C19.0395 17.64 20.2262 17.8733 21.4662 18.34ZM19.1462 24.82V19.64C18.7728 19.4667 18.2595 19.38 17.6062 19.38C16.7128 19.38 16.0662 19.74 15.6662 20.46C15.2662 21.18 15.0662 22.1333 15.0662 23.32C15.0662 25.48 15.7595 26.56 17.1462 26.56C17.7328 26.56 18.2128 26.3867 18.5862 26.04C18.9595 25.68 19.1462 25.2733 19.1462 24.82Z" fill="#FEC3A7"/>
</svg>
