<svg width="36" height="36" viewBox="0 0 36 36" fill="none" xmlns="http://www.w3.org/2000/svg">
<path d="M32.0984 4.15114C30.2429 2.05404 27.7832 0.774091 25.1637 0.542496C22.5442 0.310902 19.9376 1.14293 17.8148 2.8883C15.5876 1.02093 12.8155 0.174181 10.0566 0.518556C7.29781 0.862931 4.7572 2.37285 2.94643 4.74426C1.13565 7.11566 0.18921 10.1724 0.297701 13.2989C0.406191 16.4254 1.56155 19.3895 3.53112 21.5942L14.4014 33.8675C15.3116 34.8774 16.5376 35.4434 17.8148 35.4434C19.0919 35.4434 20.3179 34.8774 21.2281 33.8675L32.0984 21.5942C34.1422 19.2762 35.2893 16.1408 35.2893 12.8727C35.2893 9.60453 34.1422 6.46913 32.0984 4.15114V4.15114ZM29.6303 18.8712L18.76 31.1248C18.6363 31.2656 18.4891 31.3773 18.3268 31.4536C18.1646 31.5299 17.9905 31.5692 17.8148 31.5692C17.639 31.5692 17.4649 31.5299 17.3027 31.4536C17.1404 31.3773 16.9932 31.2656 16.8695 31.1248L5.99925 18.812C4.62648 17.2302 3.85777 15.1053 3.85777 12.8924C3.85777 10.6795 4.62648 8.55464 5.99925 6.97282C7.39813 5.41594 9.28479 4.54296 11.2506 4.54296C13.2164 4.54296 15.103 5.41594 16.5019 6.97282C16.6646 7.15776 16.8582 7.30456 17.0716 7.40474C17.2849 7.50491 17.5137 7.55649 17.7447 7.55649C17.9758 7.55649 18.2046 7.50491 18.4179 7.40474C18.6312 7.30456 18.8248 7.15776 18.9876 6.97282C20.3864 5.41594 22.2731 4.54296 24.2389 4.54296C26.2047 4.54296 28.0913 5.41594 29.4902 6.97282C30.8819 8.53392 31.6758 10.6473 31.702 12.8602C31.7282 15.0732 30.9845 17.2097 29.6303 18.812V18.8712Z" fill="#FEC3A7"/>
</svg>
