<svg width="23" height="20" viewBox="0 0 23 20" fill="none" xmlns="http://www.w3.org/2000/svg">
<path d="M20.4435 2.11396C19.251 0.918314 17.6702 0.188563 15.9866 0.0565219C14.3031 -0.0755195 12.6279 0.398855 11.2635 1.39396C9.83211 0.329298 8.05048 -0.153469 6.2774 0.0428726C4.50432 0.239215 2.87149 1.10008 1.70771 2.45211C0.543939 3.80415 -0.0643313 5.54692 0.00539483 7.32947C0.075121 9.11203 0.817664 10.802 2.08349 12.059L9.06974 19.0565C9.65476 19.6322 10.4427 19.9549 11.2635 19.9549C12.0843 19.9549 12.8722 19.6322 13.4572 19.0565L20.4435 12.059C21.757 10.7374 22.4943 8.94976 22.4943 7.08646C22.4943 5.22315 21.757 3.43553 20.4435 2.11396ZM18.8572 10.5065L11.871 17.4927C11.7915 17.573 11.6969 17.6367 11.5926 17.6802C11.4883 17.7237 11.3765 17.7461 11.2635 17.7461C11.1505 17.7461 11.0387 17.7237 10.9344 17.6802C10.8301 17.6367 10.7355 17.573 10.656 17.4927L3.66974 10.4727C2.78747 9.57084 2.29343 8.35935 2.29343 7.09771C2.29343 5.83606 2.78747 4.62457 3.66974 3.72271C4.56879 2.83507 5.78134 2.33735 7.04474 2.33735C8.30815 2.33735 9.52069 2.83507 10.4197 3.72271C10.5243 3.82815 10.6488 3.91184 10.7858 3.96896C10.9229 4.02607 11.07 4.05548 11.2185 4.05548C11.367 4.05548 11.5141 4.02607 11.6511 3.96896C11.7882 3.91184 11.9127 3.82815 12.0172 3.72271C12.9163 2.83507 14.1288 2.33735 15.3922 2.33735C16.6556 2.33735 17.8682 2.83507 18.7672 3.72271C19.6616 4.61275 20.1719 5.81767 20.1887 7.07935C20.2055 8.34103 19.7276 9.55913 18.8572 10.4727V10.5065Z" fill="#FEC3A7"/>
</svg>
