<svg width="35" height="35" viewBox="0 0 35 35" fill="none" xmlns="http://www.w3.org/2000/svg">
<path d="M18.0602 3.16493L17.5166 3.76469L16.9731 3.16323C15.0955 1.12354 12.566 -0.0132609 9.93489 0.000116744C7.30375 0.0134944 4.78381 1.17597 2.92329 3.23466C1.06277 5.29335 0.0121954 8.08168 0.000105506 10.9931C-0.0119844 13.9045 1.01539 16.7034 2.85874 18.7809L3.4023 19.3823L17.5166 35L31.6309 19.3823L32.1745 18.7809C34.0032 16.7001 35.0181 13.9064 34.9998 11.0041C34.9814 8.10176 33.9312 5.32408 32.0763 3.27188C30.2215 1.21967 27.711 0.0579214 25.0881 0.0379063C22.4651 0.0178911 19.9405 1.14122 18.0602 3.16493V3.16493Z" fill="#FEC3A7"/>
</svg>
