<svg width="28" height="28" viewBox="0 0 28 28" fill="none" xmlns="http://www.w3.org/2000/svg">
<g clip-path="url(#clip0_295_359)">
<path d="M22.05 8.05439C22.05 5.9194 21.2018 3.87185 19.6922 2.36218C18.1825 0.852517 16.1349 0.00439453 14 0.00439453C11.865 0.00439453 9.81741 0.852517 8.30774 2.36218C6.79807 3.87185 5.94995 5.9194 5.94995 8.05439C5.94995 12.4994 14 23.7388 14 23.7388C14 23.7388 22.05 12.4994 22.05 8.05439ZM8.74995 8.05439C8.74995 7.01604 9.05786 6.00101 9.63474 5.13765C10.2116 4.27429 11.0316 3.60139 11.9909 3.20403C12.9502 2.80667 14.0058 2.7027 15.0242 2.90527C16.0426 3.10784 16.978 3.60786 17.7123 4.34208C18.4465 5.07631 18.9465 6.01177 19.1491 7.03017C19.3516 8.04857 19.2477 9.10417 18.8503 10.0635C18.453 11.0228 17.7801 11.8427 16.9167 12.4196C16.0533 12.9965 15.0383 13.3044 14 13.3044C12.6076 13.3044 11.2722 12.7513 10.2876 11.7667C9.30307 10.7821 8.74995 9.44678 8.74995 8.05439Z" fill="#FEC3A7"/>
<path d="M18.0512 18.8125C17.4474 19.7969 16.8612 20.7069 16.3449 21.4856C18.5324 21.7831 20.0637 22.4831 20.0637 23.3056C20.0637 24.3906 17.3512 25.2744 13.9999 25.2744C10.6487 25.2744 7.9362 24.3994 7.9362 23.3056C7.9362 22.4787 9.4762 21.7787 11.6593 21.4856C11.1431 20.7069 10.5568 19.7925 9.95307 18.8081C4.65932 19.4075 0.835571 21.1837 0.835571 23.2881C0.835571 25.8912 6.7287 28 13.9999 28C21.2712 28 27.1643 25.8912 27.1643 23.2881C27.1643 21.1837 23.3406 19.4075 18.0512 18.8125Z" fill="#FEC3A7"/>
</g>
<defs>
<clipPath id="clip0_295_359">
<rect width="28" height="28" fill="white"/>
</clipPath>
</defs>
</svg>
