<svg width="43" height="44" viewBox="0 0 43 44" fill="none" xmlns="http://www.w3.org/2000/svg">
<path d="M37.2381 30.3404C35.4402 32.6189 33.1038 34.4145 30.4394 35.5654C27.7749 36.7163 24.866 37.1865 21.9747 36.9335C19.0833 36.6805 16.3003 35.7124 13.8762 34.1163C11.452 32.5202 9.46297 30.3462 8.08806 27.7901L9.16689 27.2098C10.4456 29.587 12.2954 31.6088 14.5498 33.0932C16.8043 34.5776 19.3925 35.4779 22.0814 35.7132C24.7704 35.9484 27.4757 35.5112 29.9536 34.4408C32.4315 33.3705 34.6044 31.7006 36.2764 29.5816L37.2381 30.3404Z" fill="#FEC3A7"/>
<path d="M7.24285 25.9775C6.16856 23.2812 5.78175 20.3601 6.11725 17.4771C6.45275 14.5942 7.50003 11.84 9.16478 9.46245C10.8295 7.08494 13.0595 5.15882 15.6538 3.85752C18.2481 2.55623 21.1254 1.92063 24.0265 2.00796L23.9896 3.2324C21.2916 3.15119 18.6158 3.7423 16.203 4.9525C13.7903 6.1627 11.7165 7.954 10.1682 10.1651C8.62003 12.3762 7.64606 14.9376 7.33404 17.6187C7.02203 20.2999 7.38176 23.0165 8.38085 25.524L7.24285 25.9775Z" fill="#FEC3A7"/>
<path d="M26.0191 2.18235C28.8913 2.60011 31.6144 3.72569 33.9434 5.45771C36.2723 7.18974 38.1339 9.47382 39.3605 12.1043C40.5871 14.7348 41.1402 17.629 40.97 20.5264C40.7998 23.4238 39.9116 26.2334 38.3855 28.7021L37.3435 28.058C38.7628 25.7621 39.5888 23.1492 39.7471 20.4546C39.9054 17.76 39.3911 15.0683 38.2503 12.622C37.1096 10.1757 35.3783 8.05146 33.2124 6.44068C31.0464 4.8299 28.5139 3.78311 25.8428 3.39459L26.0191 2.18235Z" fill="#FEC3A7"/>
<line x1="15" y1="16.5" x2="33" y2="16.5" stroke="#FEC3A7"/>
<line x1="15" y1="20.5" x2="30" y2="20.5" stroke="#FEC3A7"/>
<line x1="15" y1="23.5" x2="27" y2="23.5" stroke="#FEC3A7"/>
</svg>
