<svg width="344" height="50" viewBox="0 0 344 50" fill="none" xmlns="http://www.w3.org/2000/svg">
<line x1="1.5" y1="23.5" x2="141.5" y2="23.5" stroke="#FEC3A7" stroke-opacity="0.7" stroke-width="3" stroke-linecap="round"/>
<path d="M342 25.5C342.828 25.5 343.5 24.8284 343.5 24C343.5 23.1716 342.828 22.5 342 22.5V25.5ZM199 25.5H342V22.5H199V25.5Z" fill="#FEC3A7" fill-opacity="0.7"/>
<rect x="144.5" y="1.5" width="53" height="47" rx="8.5" stroke="#FEC3A7" stroke-opacity="0.7" stroke-width="3"/>
<path opacity="0.5" d="M159.87 24.57C159.87 23.82 160.01 23.11 160.29 22.44C160.58 21.77 160.98 21.18 161.49 20.67C162 20.15 162.59 19.745 163.26 19.455C163.93 19.155 164.645 19.005 165.405 19.005C166.165 19.005 166.88 19.155 167.55 19.455C168.23 19.745 168.825 20.15 169.335 20.67C169.855 21.18 170.26 21.77 170.55 22.44C170.84 23.11 170.985 23.82 170.985 24.57C170.985 25.34 170.84 26.06 170.55 26.73C170.26 27.4 169.855 27.99 169.335 28.5C168.825 29.01 168.23 29.41 167.55 29.7C166.88 29.98 166.165 30.12 165.405 30.12C164.645 30.12 163.93 29.98 163.26 29.7C162.59 29.41 162 29.015 161.49 28.515C160.98 28.015 160.58 27.43 160.29 26.76C160.01 26.08 159.87 25.35 159.87 24.57ZM161.49 24.585C161.49 25.325 161.665 26 162.015 26.61C162.365 27.22 162.84 27.705 163.44 28.065C164.04 28.425 164.71 28.605 165.45 28.605C166.18 28.605 166.84 28.425 167.43 28.065C168.02 27.705 168.49 27.22 168.84 26.61C169.19 26 169.365 25.32 169.365 24.57C169.365 23.82 169.185 23.14 168.825 22.53C168.475 21.91 168 21.42 167.4 21.06C166.81 20.7 166.15 20.52 165.42 20.52C164.68 20.52 164.01 20.705 163.41 21.075C162.82 21.435 162.35 21.925 162 22.545C161.66 23.155 161.49 23.835 161.49 24.585ZM176.347 19.125C177.107 19.125 177.782 19.26 178.372 19.53C178.962 19.79 179.422 20.175 179.752 20.685C180.092 21.185 180.262 21.805 180.262 22.545C180.262 22.975 180.197 23.4 180.067 23.82C179.937 24.24 179.727 24.62 179.437 24.96C179.157 25.3 178.777 25.575 178.297 25.785C177.827 25.985 177.247 26.085 176.557 26.085H174.952V30H173.392V19.125H176.347ZM176.527 24.57C177.087 24.57 177.517 24.465 177.817 24.255C178.127 24.035 178.342 23.775 178.462 23.475C178.582 23.165 178.642 22.875 178.642 22.605C178.642 22.405 178.607 22.195 178.537 21.975C178.467 21.745 178.352 21.53 178.192 21.33C178.042 21.12 177.837 20.955 177.577 20.835C177.317 20.705 176.997 20.64 176.617 20.64H174.952V24.57H176.527ZM178.357 25.5L181.177 30H179.347L176.482 25.53L178.357 25.5Z" fill="#D9D9D9"/>
</svg>
