<svg width="35" height="35" viewBox="0 0 35 35" fill="none" xmlns="http://www.w3.org/2000/svg">
<path d="M17.5 35C7.83473 35 0 27.1653 0 17.5C0 7.83473 7.83473 0 17.5 0C27.1653 0 35 7.83473 35 17.5C35 27.1653 27.1653 35 17.5 35ZM17.5 1.90377C8.93305 1.90377 1.90377 8.93305 1.90377 17.5C1.90377 26.0669 8.93305 33.0962 17.5 33.0962C26.0669 33.0962 33.0962 26.0669 33.0962 17.5C33.0962 8.93305 26.0669 1.90377 17.5 1.90377V1.90377Z" fill="#FEC3A7"/>
<path d="M17.8661 27.5313L7.83472 17.4999L17.8661 7.46851L19.1841 8.85972L10.6171 17.4999L19.1841 26.1401L17.8661 27.5313" fill="#FEC3A7"/>
<path d="M9.22607 16.4749H26.7993V18.5251H9.22607V16.4749Z" fill="#FEC3A7"/>
</svg>
