<svg width="12" height="21" viewBox="0 0 12 21" fill="none" xmlns="http://www.w3.org/2000/svg">
<path fill-rule="evenodd" clip-rule="evenodd" d="M10.5473 1.24742C10.1388 0.86103 9.48385 0.866841 9.08333 1.26041L0.593981 9.60005C0.403925 9.78391 0.253249 10.0045 0.151114 10.2484C0.0489801 10.4923 -0.00247844 10.7545 -0.000132488 11.0189C0.00221346 11.2833 0.0583149 11.5445 0.164761 11.7865C0.271207 12.0286 0.425773 12.2465 0.619061 12.4269L9.31758 20.6751C9.51497 20.8594 9.77511 20.9617 10.0452 20.9611C10.3152 20.9606 10.575 20.8573 10.7716 20.6722C10.869 20.5808 10.9466 20.4704 10.9997 20.3477C11.0527 20.2251 11.0799 20.0929 11.0798 19.9593C11.0796 19.8257 11.0521 19.6936 10.9988 19.5711C10.9455 19.4486 10.8676 19.3383 10.77 19.2472L2.8087 11.7005C2.71198 11.6103 2.63463 11.5013 2.58136 11.3802C2.52809 11.2591 2.50001 11.1285 2.49884 10.9962C2.49767 10.8639 2.52342 10.7328 2.57453 10.6108C2.62565 10.4888 2.70105 10.3785 2.79616 10.2865L10.5598 2.66037C10.6549 2.56852 10.7303 2.45828 10.7814 2.33636C10.8325 2.21444 10.8582 2.08339 10.8571 1.9512C10.8559 1.81901 10.8278 1.68844 10.7746 1.56745C10.7213 1.44645 10.644 1.33757 10.5473 1.24742" fill="#FEC3A7"/>
</svg>
