<svg width="45" height="45" viewBox="0 0 45 45" fill="none" xmlns="http://www.w3.org/2000/svg">
<path d="M43.8392 22.0507C43.4492 21.6476 34.1668 12.1729 22.5001 12.1729C10.8333 12.1729 1.55096 21.6476 1.16096 22.0507C1.0435 22.1724 0.977906 22.3349 0.978028 22.5041C0.978149 22.6732 1.04397 22.8357 1.16161 22.9572C1.55096 23.3602 10.8333 32.8272 22.5001 32.8272C22.5086 32.8272 22.5151 32.8226 22.5236 32.8226C28.2079 32.8129 32.8292 28.1863 32.8292 22.5C32.8292 20.1679 32.0701 17.9674 30.6347 16.1355C30.5279 15.9993 30.3715 15.9112 30.1998 15.8904C30.0281 15.8696 29.8551 15.9179 29.719 16.0246C29.5829 16.1313 29.4947 16.2877 29.4739 16.4595C29.4531 16.6312 29.5014 16.8041 29.6081 16.9402C30.8566 18.5239 31.5322 20.4835 31.5249 22.5C31.5249 27.4729 27.4788 31.5189 22.506 31.5189C17.5266 31.5189 13.4753 27.4729 13.4753 22.5C13.4753 17.5272 17.5266 13.4805 22.506 13.4805C24.1618 13.4805 25.7805 13.9331 27.1886 14.7894C27.2617 14.834 27.3429 14.8637 27.4275 14.8769C27.5121 14.8901 27.5985 14.8865 27.6818 14.8663C27.765 14.846 27.8434 14.8096 27.9126 14.759C27.9817 14.7085 28.0402 14.6447 28.0847 14.5715C28.1397 14.4757 28.169 14.3671 28.1694 14.2565C35.267 16.1583 40.8314 20.9981 42.4338 22.5033C40.9736 23.8774 36.2218 28.0298 30.0379 30.1787C29.8745 30.2355 29.7402 30.3548 29.6648 30.5105C29.5893 30.6662 29.5788 30.8455 29.6355 31.0089C29.6923 31.1724 29.8116 31.3066 29.9673 31.3821C30.123 31.4575 30.3023 31.4681 30.4657 31.4113C38.211 28.7198 43.6123 23.1913 43.8386 22.9572C43.9562 22.8357 44.022 22.6732 44.0221 22.5041C44.0223 22.3349 43.9567 22.1724 43.8392 22.0507ZM12.171 22.5C12.171 25.7257 13.6612 28.6076 15.9881 30.5022C9.29552 28.4622 4.10487 23.9479 2.56639 22.5026C4.10356 21.0561 9.29096 16.5359 15.9894 14.4959C13.6618 16.3911 12.171 19.2737 12.171 22.5V22.5Z" fill="#FEC3A7"/>
<path d="M22.5 26.1295C21.8026 26.1285 21.1201 25.9273 20.5336 25.5498C19.9472 25.1724 19.4814 24.6345 19.1916 24.0001C19.1175 23.8466 18.9863 23.7282 18.8261 23.6702C18.6658 23.6122 18.4892 23.6192 18.3341 23.6898C18.179 23.7604 18.0576 23.8889 17.996 24.0478C17.9345 24.2067 17.9375 24.3834 18.0046 24.5401C18.3985 25.4022 19.0315 26.1331 19.8285 26.646C20.6255 27.159 21.5529 27.4324 22.5007 27.4338C25.2229 27.4338 27.4377 25.219 27.4377 22.4969C27.4377 20.0962 25.654 18.0073 23.299 17.6362L23.2761 17.6323C23.02 17.5882 22.7606 17.5662 22.5007 17.5664C21.2801 17.564 20.1021 18.0144 19.1944 18.8305C18.2868 19.6466 17.7141 20.7703 17.5872 21.9842C17.5726 22.1203 17.6012 22.2574 17.669 22.3763C17.7368 22.4951 17.8403 22.5895 17.9648 22.6462C18.5055 22.8927 19.0885 23.0179 19.6964 23.0179C20.7529 23.0176 21.7703 22.618 22.5447 21.8993C23.3191 21.1805 23.7933 20.1957 23.8722 19.1421C25.204 19.6866 26.1333 21.0105 26.1333 22.4962C26.1321 23.4594 25.7489 24.3829 25.0678 25.064C24.3867 25.7451 23.4633 26.1283 22.5 26.1295ZM19.6957 21.7142C19.4466 21.7142 19.204 21.6842 18.9711 21.6242C19.1717 20.8247 19.6378 20.1169 20.2931 19.6168C20.9485 19.1167 21.7541 18.8539 22.5783 18.8714C22.5679 19.629 22.2595 20.352 21.7201 20.8841C21.1806 21.4161 20.4534 21.7143 19.6957 21.7142V21.7142Z" fill="#FEC3A7"/>
<path d="M22.4998 9.12466C22.6728 9.12466 22.8387 9.05595 22.961 8.93364C23.0833 8.81134 23.152 8.64545 23.152 8.47249V5.52009C23.152 5.34713 23.0833 5.18124 22.961 5.05894C22.8387 4.93663 22.6728 4.86792 22.4998 4.86792C22.3269 4.86792 22.161 4.93663 22.0387 5.05894C21.9164 5.18124 21.8477 5.34713 21.8477 5.52009V8.47249C21.8477 8.64545 21.9164 8.81134 22.0387 8.93364C22.161 9.05595 22.3269 9.12466 22.4998 9.12466Z" fill="#FEC3A7"/>
<path d="M14.9209 10.6779C14.9634 10.7527 15.0203 10.8183 15.0883 10.871C15.1562 10.9237 15.234 10.9624 15.317 10.985C15.4 11.0075 15.4866 11.0134 15.5719 11.0023C15.6572 10.9912 15.7394 10.9634 15.8139 10.9204C15.8884 10.8774 15.9537 10.8201 16.0059 10.7517C16.0582 10.6834 16.0964 10.6054 16.1183 10.5223C16.1403 10.4391 16.1457 10.3525 16.134 10.2672C16.1223 10.182 16.094 10.1 16.0505 10.0258L14.5746 7.46924C14.5321 7.39447 14.4752 7.32885 14.4072 7.27615C14.3392 7.22345 14.2615 7.18472 14.1785 7.16219C14.0955 7.13965 14.0089 7.13376 13.9236 7.14484C13.8383 7.15593 13.756 7.18378 13.6815 7.22678C13.6071 7.26979 13.5418 7.3271 13.4896 7.39543C13.4373 7.46375 13.3991 7.54173 13.3771 7.62488C13.3551 7.70803 13.3498 7.79471 13.3615 7.87993C13.3731 7.96514 13.4015 8.04721 13.445 8.12141L14.9209 10.6779V10.6779Z" fill="#FEC3A7"/>
<path d="M15.8118 34.0832C15.7377 34.0403 15.6558 34.0124 15.5709 34.0012C15.4859 33.99 15.3996 33.9956 15.3169 34.0178C15.2341 34.04 15.1566 34.0782 15.0886 34.1304C15.0207 34.1826 14.9637 34.2477 14.921 34.3219L13.4451 36.8784C13.36 37.0281 13.3375 37.2054 13.3826 37.3716C13.4278 37.5379 13.5368 37.6795 13.6859 37.7656C13.8351 37.8517 14.0122 37.8753 14.1787 37.8313C14.3452 37.7873 14.4876 37.6792 14.5747 37.5306L16.0505 34.9741C16.0934 34.8999 16.1213 34.8181 16.1325 34.7331C16.1437 34.6482 16.1381 34.5619 16.1159 34.4791C16.0938 34.3964 16.0555 34.3188 16.0033 34.2509C15.9511 34.183 15.8861 34.126 15.8118 34.0832Z" fill="#FEC3A7"/>
<path d="M22.4998 35.8755C22.3269 35.8755 22.161 35.9442 22.0387 36.0665C21.9164 36.1888 21.8477 36.3547 21.8477 36.5277V39.4801C21.8477 39.653 21.9164 39.8189 22.0387 39.9412C22.161 40.0635 22.3269 40.1322 22.4998 40.1322C22.6728 40.1322 22.8387 40.0635 22.961 39.9412C23.0833 39.8189 23.152 39.653 23.152 39.4801V36.5277C23.152 36.3547 23.0833 36.1888 22.961 36.0665C22.8387 35.9442 22.6728 35.8755 22.4998 35.8755Z" fill="#FEC3A7"/>
<path d="M30.079 34.322C30.0365 34.2473 29.9796 34.1816 29.9116 34.1289C29.8436 34.0762 29.7659 34.0375 29.6829 34.015C29.5999 33.9924 29.5133 33.9865 29.428 33.9976C29.3427 34.0087 29.2604 34.0366 29.1859 34.0796C29.1115 34.1226 29.0462 34.1799 28.994 34.2482C28.9417 34.3165 28.9035 34.3945 28.8815 34.4777C28.8595 34.5608 28.8542 34.6475 28.8659 34.7327C28.8775 34.8179 28.9059 34.9 28.9494 34.9742L30.4253 37.5307C30.4678 37.6055 30.5247 37.6711 30.5927 37.7238C30.6606 37.7765 30.7384 37.8152 30.8214 37.8378C30.9044 37.8603 30.991 37.8662 31.0763 37.8551C31.1616 37.844 31.2438 37.8162 31.3183 37.7732C31.3928 37.7302 31.4581 37.6729 31.5103 37.6045C31.5625 37.5362 31.6008 37.4582 31.6227 37.3751C31.6447 37.2919 31.65 37.2052 31.6384 37.12C31.6267 37.0348 31.5983 36.9527 31.5549 36.8785L30.079 34.322Z" fill="#FEC3A7"/>
<path d="M29.1881 10.9167C29.2622 10.9597 29.3441 10.9876 29.4291 10.9989C29.514 11.0102 29.6004 11.0046 29.6831 10.9824C29.7659 10.9602 29.8435 10.9219 29.9114 10.8697C29.9793 10.8174 30.0363 10.7523 30.079 10.678L31.5549 8.12149C31.64 7.97178 31.6624 7.79447 31.6173 7.62827C31.5722 7.46207 31.4632 7.32046 31.314 7.23435C31.1649 7.14824 30.9877 7.12462 30.8212 7.16864C30.6547 7.21266 30.5124 7.32075 30.4253 7.46931L28.9494 10.0258C28.9065 10.1 28.8787 10.1819 28.8674 10.2668C28.8562 10.3517 28.8618 10.438 28.884 10.5208C28.9062 10.6035 28.9445 10.6811 28.9966 10.749C29.0488 10.817 29.1139 10.8739 29.1881 10.9167Z" fill="#FEC3A7"/>
</svg>
